<?xml version="1.0" encoding="utf-8"?>
<!-- Generator: Adobe Illustrator 21.0.2, SVG Export Plug-In . SVG Version: 6.00 Build 0)  -->
<svg version="1.1" id="Layer_1" xmlns="http://www.w3.org/2000/svg" xmlns:xlink="http://www.w3.org/1999/xlink" x="0px" y="0px"
	 viewBox="0 0 422.6 304.3" style="enable-background:new 0 0 422.6 304.3;" xml:space="preserve">
<style type="text/css">
	.st0{fill:#FFFFFF;}
</style>
<g>
	<path d="M268.5,292.3c-52.8,0-105.3,0-158.3,0c0.5-5,0.7-9.9,1.4-14.7c3.5-21.8,13.2-40.4,30.3-54.7c31-25.9,74.3-23.1,101.9,6.3
		c16.1,17.2,23.8,37.8,24.7,61.1C268.5,290.9,268.5,291.5,268.5,292.3z"/>
	<path d="M231.8,158.3c-0.1,23.3-19.1,42.1-42.3,41.9c-23.1-0.2-41.9-19.2-41.8-42.2c0.1-23.3,19.1-42,42.3-41.9
		C213.3,116.3,231.9,135.2,231.8,158.3z"/>
	<path d="M249.6,219.9c7-6.1,14.9-10.3,23.7-12.6c29.8-8,56.6,8.3,69.8,33.2c5.1,9.6,7.7,19.8,8.4,30.6c0.1,2-0.3,2.9-2.7,2.9
		c-23.3-0.1-46.6-0.1-70,0c-1.6,0-2.6-0.2-2.9-2.1c-3-19.7-11.4-36.7-25.5-50.9C250.2,220.7,250,220.4,249.6,219.9z"/>
	<path d="M288.5,201.9c-18.5,0-33.4-15-33.4-33.4c0-18.5,15.1-33.5,33.6-33.4c18.4,0.1,33.3,15.1,33.2,33.5
		C322,187.1,307,202,288.5,201.9z"/>
</g>
<path d="M128.2,67.3c0,27.5-18.1,50.7-43.1,58.4c-5.7,1.8-11.8,2.7-18.1,2.7c-33.8,0-61.2-27.4-61.2-61.2S33.3,6.2,67.1,6.2
	S128.2,33.6,128.2,67.3z"/>
<circle cx="373.8" cy="102.6" r="38.9"/>
<path d="M140.6,134.8"/>
<polyline points="135.4,145.7 94.4,110.7 115,93.5 "/>
<polyline points="325,145.9 358.2,103.5 376.3,123.4 "/>
<g>
	<path d="M69,48.5c1.1-1.3,2.2-2.7,3.4-3.9c3.4-3.3,7.4-5.4,12.2-5.9c7.1-0.7,13.2,1.5,17.9,6.9c3.1,3.5,4.6,7.6,4.7,12.3
		c0.1,3.9-0.4,7.7-1.9,11.4c-1.4,3.5-3.5,6.5-6.1,9.3c-3.4,3.6-7.3,6.6-11,9.8c-3.8,3.2-7.6,6.5-11,10.2c-2.8,3.1-5.4,6.4-7.7,9.9
		c-0.1,0.2-0.2,0.3-0.3,0.5c0,0-0.1,0-0.1,0.1c-0.6-0.8-1.1-1.7-1.7-2.5c-3.5-5-7.5-9.5-12.1-13.5c-3.9-3.4-7.9-6.7-11.8-10.1
		c-3-2.5-5.7-5.3-7.9-8.5c-2.3-3.4-3.7-7.1-4.3-11.1c-0.4-3.1-0.5-6.3,0.2-9.4c1-4.1,3.1-7.5,6.3-10.3c3.1-2.7,6.7-4.3,10.8-4.7
		c8.1-0.9,14.6,2.2,19.6,8.5C68.4,47.7,68.7,48.2,69,48.5z M69.1,103.8c0.1-0.2,0.3-0.3,0.4-0.5c2.5-3.4,5.2-6.7,8.2-9.5
		c3.7-3.4,7.5-6.6,11.2-9.8c3.2-2.7,6.5-5.4,9.3-8.6c2.3-2.7,4.1-5.7,5.2-9.2c0.6-2.1,0.9-4.3,1-6.5c0.2-4.5-0.9-8.5-3.9-11.9
		c-4.5-5.1-10.3-7-16.9-5.8c-3.9,0.7-7.2,2.7-9.9,5.7c-1.7,1.9-3,4.1-4.2,6.3c-0.1,0.2-0.2,0.3-0.3,0.6c-0.1-0.2-0.2-0.4-0.3-0.6
		c-1.4-2.7-2.9-5.2-5.1-7.3c-2.8-2.7-6.1-4.4-10-4.9c-4.1-0.6-8.1,0.2-11.7,2.4c-3.9,2.4-6.5,5.8-7.7,10.3c-0.6,2.5-0.6,5.1-0.3,7.6
		c0.3,3.1,1.2,6,2.7,8.8c1.9,3.4,4.4,6.2,7.3,8.7c3.4,3,7,5.9,10.5,8.9c4.1,3.5,8,7.2,11.4,11.4C67,101,68,102.4,69.1,103.8z"/>
	<path class="st0" d="M69.1,103.8c-1.1-1.4-2.1-2.8-3.2-4.1c-3.4-4.2-7.3-7.9-11.4-11.4c-3.5-3-7.1-5.9-10.5-8.9
		c-2.9-2.5-5.4-5.3-7.3-8.7c-1.5-2.7-2.4-5.7-2.7-8.8c-0.3-2.6-0.3-5.1,0.3-7.6C35.4,49.8,38,46.3,42,44c3.6-2.2,7.5-2.9,11.7-2.4
		c3.9,0.5,7.2,2.3,10,4.9c2.2,2.1,3.7,4.6,5.1,7.3c0.1,0.2,0.2,0.3,0.3,0.6c0.1-0.2,0.2-0.4,0.3-0.6c1.2-2.2,2.5-4.4,4.2-6.3
		c2.7-2.9,6-5,9.9-5.7c6.7-1.2,12.4,0.7,16.9,5.8c3,3.4,4.1,7.5,3.9,11.9c-0.1,2.2-0.4,4.4-1,6.5c-1,3.5-2.8,6.5-5.2,9.2
		c-2.8,3.2-6.1,5.9-9.3,8.6c-3.8,3.2-7.6,6.5-11.2,9.8c-3.1,2.9-5.8,6.1-8.2,9.5C69.4,103.4,69.2,103.6,69.1,103.8z"/>
</g>
<g>
	<path class="st0" d="M365.6,86.8c-0.1-0.1-0.1-0.2-0.1-0.3c-0.6-1.4-1.2-2.9-1.8-4.3c0.9-0.6,1.8-1,2.8-1.4c4.2-1.5,8.6-2,13.1-1.2
		c3.6,0.7,6.4,2.3,8.2,5.3c1.4,2.3,1.6,4.8,1.2,7.3c-0.5,2.6-1.9,4.9-3.6,7c-1.4,1.6-2.8,3.1-4.2,4.7c-1.7,1.9-2.9,4-3.5,6.3
		c-0.3,1.4-0.3,2.8-0.2,4.2c0,0.3,0,0.7,0,1c-2.1,0-4.2,0-6.3,0c-0.1-0.7-0.2-1.5-0.2-2.2c-0.4-3.9,1.1-7.4,3.5-10.5
		c1.2-1.5,2.6-2.9,3.8-4.4c1.3-1.5,2.4-3,3-4.8c0.5-1.4,0.7-2.9,0.3-4.3c-0.6-2.5-2.4-4-5.2-4.5c-3.7-0.7-7.2,0.1-10.4,1.8
		C365.8,86.7,365.7,86.7,365.6,86.8z"/>
	<path class="st0" d="M379,125.8c-0.1,2.3-1.5,4-3.8,4.5c-3.2,0.6-6-1.4-6-4.3c0-1.5,0.4-2.9,1.8-3.8c1.6-1.1,3.3-1.2,5.1-0.6
		c1.8,0.7,2.6,2,2.8,3.6C379,125.5,379,125.7,379,125.8z"/>
</g>
</svg>
