<?xml version="1.0" encoding="utf-8"?>
<!-- Generator: Adobe Illustrator 21.0.2, SVG Export Plug-In . SVG Version: 6.00 Build 0)  -->
<svg version="1.1" id="Layer_1" xmlns="http://www.w3.org/2000/svg" xmlns:xlink="http://www.w3.org/1999/xlink" x="0px" y="0px"
	 viewBox="0 0 170 98" style="enable-background:new 0 0 170 98;" xml:space="preserve">
<path d="M80.8,55.1c-15.4,0-30.8,0-46.2,0c-4.8,0-7.4-1.7-7.4-5.1c-0.1-3.3,2.5-5.1,7.3-5.1c30.9,0,61.7,0,92.6,0
	c0.9,0,1.9,0,2.8,0.1c2.6,0.3,4.3,2.2,4.4,4.7c0.1,2.6-1.4,4.6-4,5.1c-1.2,0.2-2.4,0.3-3.7,0.3C111.4,55.2,96.1,55.1,80.8,55.1z"/>
<path d="M618.8,389.1c-15.4,0-30.8,0-46.2,0c-4.8,0-7.4-1.7-7.4-5.1c-0.1-3.3,2.5-5.1,7.3-5.1c30.9,0,61.7,0,92.6,0
	c0.9,0,1.9,0,2.8,0.1c2.6,0.3,4.3,2.2,4.4,4.7c0.1,2.6-1.4,4.6-4,5.1c-1.2,0.2-2.4,0.3-3.7,0.3C649.4,389.2,634.1,389.1,618.8,389.1
	z"/>
<path d="M618.8,389.1c-15.4,0-30.8,0-46.2,0c-4.8,0-7.4-1.7-7.4-5.1c-0.1-3.3,2.5-5.1,7.3-5.1c30.9,0,61.7,0,92.6,0
	c0.9,0,1.9,0,2.8,0.1c2.6,0.3,4.3,2.2,4.4,4.7c0.1,2.6-1.4,4.6-4,5.1c-1.2,0.2-2.4,0.3-3.7,0.3C649.4,389.2,634.1,389.1,618.8,389.1
	z"/>
<path d="M618.8,389.1c-15.4,0-30.8,0-46.2,0c-4.8,0-7.4-1.7-7.4-5.1c-0.1-3.3,2.5-5.1,7.3-5.1c30.9,0,61.7,0,92.6,0
	c0.9,0,1.9,0,2.8,0.1c2.6,0.3,4.3,2.2,4.4,4.7c0.1,2.6-1.4,4.6-4,5.1c-1.2,0.2-2.4,0.3-3.7,0.3C649.4,389.2,634.1,389.1,618.8,389.1
	z"/>
<path d="M80.8,19.1c-15.4,0-30.8,0-46.2,0c-4.8,0-7.4-1.7-7.4-5.1C27.2,10.8,29.7,9,34.5,9c30.9,0,61.7,0,92.6,0
	c0.9,0,1.9,0,2.8,0.1c2.6,0.3,4.3,2.2,4.4,4.7c0.1,2.6-1.4,4.6-4,5.1c-1.2,0.2-2.4,0.3-3.7,0.3C111.4,19.2,96.1,19.1,80.8,19.1z"/>
<path d="M73.7,91.1c-13,0-26.1,0-39.1,0c-4.1,0-6.3-1.7-6.3-5.1c-0.1-3.3,2.1-5.1,6.2-5.1c26.2,0,52.3,0,78.5,0c0.8,0,1.6,0,2.4,0.1
	c2.2,0.3,3.6,2.2,3.7,4.7c0.1,2.6-1.2,4.6-3.4,5.1c-1,0.2-2.1,0.3-3.1,0.3C99.6,91.2,86.6,91.1,73.7,91.1z"/>
<circle cx="12" cy="14" r="5.7"/>
<circle cx="12" cy="86" r="5.7"/>
<circle cx="12" cy="50" r="5.7"/>
<g>
	<path d="M123.8,89c0.1-0.1,0.1-0.2,0.2-0.2c3.6-3.6,7.1-7.1,10.7-10.7c0.2-0.2,0.3-0.2,0.6-0.1c0.9,0.3,1.9-0.1,2.4-0.9
		c0.5-0.8,0.3-1.9-0.3-2.5c-0.7-0.6-1.7-0.7-2.5-0.3c-0.8,0.5-1.2,1.5-0.9,2.4c0.1,0.2,0.1,0.3-0.1,0.4c-3.6,3.6-7.2,7.2-10.8,10.8
		c-0.1,0.1-0.1,0.1-0.2,0.2c0.1-0.3,0.1-0.5,0.2-0.7c1.9-6.1,3.7-12.3,5.6-18.4c0.1-0.2,0.2-0.4,0.4-0.5c5.1-2.7,10.2-5.4,15.3-8.1
		c0.2-0.1,0.3-0.1,0.5,0c2.2,2.3,4.5,4.5,6.7,6.8c0,0,0.1,0.1,0.1,0.1c-0.5,0.9-1,1.8-1.5,2.8c-2.2,4.2-4.5,8.4-6.7,12.7
		c-0.2,0.3-0.4,0.5-0.7,0.6c-6.2,1.9-12.4,3.8-18.6,5.7C124,89,123.9,89,123.8,89C123.8,89,123.8,89,123.8,89z"/>
	<path d="M156.4,44.8c3.5,3.5,7,7,10.6,10.6c-4.8,3.6-9.7,7.3-14.5,10.9c-2.3-2.3-4.6-4.6-7-7C149.2,54.5,152.8,49.6,156.4,44.8z"/>
	<path d="M136.5,76c0,0.4-0.3,0.7-0.7,0.6c-0.4,0-0.7-0.3-0.7-0.7c0-0.4,0.3-0.7,0.7-0.6C136.3,75.3,136.5,75.6,136.5,76z"/>
</g>
</svg>
