<?xml version="1.0" encoding="utf-8"?>
<!-- Generator: Adobe Illustrator 21.0.2, SVG Export Plug-In . SVG Version: 6.00 Build 0)  -->
<svg version="1.1" id="Layer_1" xmlns="http://www.w3.org/2000/svg" xmlns:xlink="http://www.w3.org/1999/xlink" x="0px" y="0px"
	 viewBox="0 0 251 213" style="enable-background:new 0 0 251 213;" xml:space="preserve">
<g>
	<path d="M126.3,4c36.1,0,72.2,0,108.3,0c5.3,0,9,2.7,10.2,7.4c0.2,0.8,0.2,1.7,0.2,2.6c0,50.2,0,100.5,0,150.7
		c0,5.9-3.9,9.9-9.8,10.1c-0.3,0-0.7,0-1,0c-71.9,0-143.9,0-215.8,0c-4.1,0-7.5-1.2-9.5-4.9c-0.7-1.4-1.2-3-1.2-4.5
		c-0.1-50.6-0.1-101.2,0-151.8c0-4.7,3.4-8.7,8.1-9.4c1-0.1,2-0.1,3-0.1C54.5,4,90.4,4,126.3,4z M232.2,137.5c0-40.2,0-80.2,0-120.2
		c-70.5,0-140.9,0-211.3,0c0,40.1,0,80.1,0,120.2C91.3,137.5,161.7,137.5,232.2,137.5z M134.9,161.3c0-4-3.3-7.3-7.2-7.2
		c-3.9,0-7.1,3.2-7.2,7.1c0,4,3.2,7.3,7.2,7.3C131.6,168.6,134.9,165.3,134.9,161.3z"/>
	<path d="M98.3,177.7c18.4,0,36.7,0,55.2,0c0,0.7,0,1.3,0,1.9c0.1,3.6,0,7.3,0.4,10.8c0.6,5.1,3.4,8.9,7.6,11.8
		c1,0.7,2.1,1.4,3.1,2.2c0.9,0.7,1.9,1.7,1.2,2.8c-0.6,0.9-1.7,1.5-2.7,2.1c-0.3,0.2-0.9,0-1.3,0c-24,0-47.9,0-71.9,0
		c-0.4,0-1,0.2-1.3-0.1c-1-0.7-2.2-1.4-2.7-2.3c-0.3-0.5,0.6-1.9,1.3-2.5c1-1,2.2-1.7,3.3-2.5c5.2-3.6,7.5-8.7,7.7-14.9
		C98.3,184,98.3,180.9,98.3,177.7z"/>
</g>
<ellipse cx="128.5" cy="161.7" rx="13.7" ry="10.5"/>
<g>
	<path d="M163.3,118.5c-6.6,0-13.2,0-19.8,0c1.7-4.4,1.7-8.8,0-13.2c-1.4-3.5-3.7-6.3-6.8-8.5c-6.3-4.4-15.1-4.6-21.5-0.4
		c-3.6,2.4-6.3,5.5-7.7,9.7c-1.4,4.1-1.3,8.3,0.3,12.4c-6.6,0-13.2,0-19.9,0c0-0.3,0-0.5,0-0.8c0-5.4,0-10.8,0-16.1
		c0-9.3,6.9-17.1,16.2-18.3c0.9-0.1,1.8-0.1,2.7-0.1c12.6,0,25.3,0,37.9,0c4.6,0,8.7,1.2,12.2,4.2c4.1,3.4,6.3,7.9,6.4,13.2
		c0.1,5.8,0,11.7,0,17.6C163.3,118.1,163.3,118.3,163.3,118.5z"/>
	<path d="M125.6,75.6c-11.7,0-21.1-9.5-21-21.2c0-11.6,9.5-21,21.1-20.9c11.7,0.1,21.1,9.5,21,21.3
		C146.7,66.2,137.1,75.6,125.6,75.6z"/>
	<path d="M125.6,127.2c-8.5,0-15.3-6.9-15.2-15.4c0-8.4,6.9-15.2,15.3-15.2c8.5,0.1,15.3,7,15.2,15.5
		C140.9,120.5,134,127.2,125.6,127.2z M117.6,112.1c1.9,2,3.8,4.1,5.9,6.2c3.4-3.5,6.7-6.9,9.9-10.2c-0.7-0.7-1.4-1.4-2.2-2.2
		c-2.5,2.5-5.1,5.1-7.7,7.7c-1.2-1.3-2.5-2.5-3.6-3.7C119,110.7,118.3,111.4,117.6,112.1z"/>
</g>
</svg>
