<?xml version="1.0" encoding="utf-8"?>
<!-- Generator: Adobe Illustrator 21.0.2, SVG Export Plug-In . SVG Version: 6.00 Build 0)  -->
<svg version="1.1" id="Layer_1" xmlns="http://www.w3.org/2000/svg" xmlns:xlink="http://www.w3.org/1999/xlink" x="0px" y="0px"
	 viewBox="0 0 187 188" style="enable-background:new 0 0 187 188;" xml:space="preserve">
<g id="rYkJM3_1_">
	<g>
		<path d="M115.2,3c0.8,2.3,2,4.6,2.2,7c0.2,2.3,0.8,3.5,3.2,4c3,0.6,6,1.6,8.9,2.5c3,0.9,4.2,2.8,3.5,5.8c-0.7,2.7-1.5,5.5-2.4,8.1
			c-0.9,2.8-2.7,3-5.5,2.3c-4.8-1.2-9.7-2-14.6-2.7c-2.7-0.3-5.3,0.5-6.2,3.5c-0.9,3,1.3,4.5,3.6,5.6c4.6,2.3,9.3,4.5,13.9,6.7
			c13.1,6.3,18.3,19.4,12.5,31.4c-2.8,5.7-7.2,9.7-13.3,11.7c-3.1,1-4.3,2.6-4.1,5.8c0.2,2.5,1.2,6.3-2.1,7.1
			c-3.6,0.8-7.6,0.5-11.3-0.4c-1.1-0.3-2-3.9-1.9-6c0.1-3.2-0.9-4.6-4.1-5.1c-3.4-0.6-6.7-1.7-10-2.8c-3.5-1.1-4.9-3.5-3.7-7.2
			c0.7-2.3,1.4-4.7,2.1-7c0.9-3.2,2.7-3.9,5.8-2.7c4.3,1.6,8.8,3,13.3,3.8c2.5,0.4,5.5-0.1,7.9-1.1c4.3-1.7,4.8-6.7,0.9-9.2
			c-3.8-2.4-8-4.1-12-6.2c-3-1.5-6.1-2.8-8.8-4.7c-13.2-9.6-12-28.7,2.7-35.9c5.1-2.5,7.8-5,7.2-10.8c-0.1-1.2,0.6-2.4,0.9-3.6
			C107.5,3,111.3,3,115.2,3z"/>
		<path d="M41.8,185.4c-13.5-13.2-26.5-25.9-38.6-37.6c10.1-10.6,19.4-21.6,30-31.2c12-10.9,26.6-12.5,42.1-7.8
			c3.7,1.1,7.8,1.7,11.7,1.9c10.6,0.3,21.2,0.2,31.7,0.4c7.3,0.1,12.7,5.4,12.5,12c-0.2,6.8-5.5,11.6-12.8,11.6
			c-7,0-13.9,0.1-20.9,0.1c-4.1,0-6.3,1.7-6.1,4.8c0.2,3.7,2.8,4.5,6,4.5c7.5-0.1,15-0.1,22.5-0.2c9.9-0.1,18.5-7.6,20.5-17.4
			c0.5-2.3,1.6-4.6,3.1-6.4c5.9-7,12.1-13.7,18.2-20.6c3.4-3.8,7.7-5.2,12.6-4.3c8.4,1.5,12.5,11.6,7.5,18.8
			c-2.6,3.7-5.7,7-8.7,10.4c-10.8,12.5-21.8,24.8-32.5,37.4c-7.2,8.4-16,12.4-27.1,12.3c-18.7-0.3-37.4,0-56.1-0.1
			c-3.3,0-5.7,0.8-7.7,3.3C46.9,180,44.3,182.6,41.8,185.4z"/>
	</g>
</g>
</svg>
