<?xml version="1.0" encoding="utf-8"?>
<!-- Generator: Adobe Illustrator 21.0.2, SVG Export Plug-In . SVG Version: 6.00 Build 0)  -->
<svg version="1.1" id="Layer_1" xmlns="http://www.w3.org/2000/svg" xmlns:xlink="http://www.w3.org/1999/xlink" x="0px" y="0px"
	 viewBox="0 0 251 191" style="enable-background:new 0 0 251 191;" xml:space="preserve">
<g>
	<path d="M124.2,5.5c27.9,0,55.8,0.3,83.7-0.1c19.6-0.2,32.7,14.3,35.4,30.1c0.5,2.7,0.7,5.4,0.7,8.1c0,34.6,0.1,69.2,0,103.8
		c0,11.9-4.3,22.1-13.4,30.1c-6.2,5.4-13.5,7.8-21.7,7.8c-51.8,0-103.7,0-155.5,0c-4.8,0-9.6,0-14.4,0c-9.6,0-17.7-3.7-24.1-10.8
		c-6.8-7.4-10.2-16.3-10.3-26.4C4.4,113,4.2,77.8,4.6,42.6c0.1-15.2,6.9-27,20.8-34.1c4.5-2.3,9.3-3,14.3-3
		C67.8,5.5,96,5.5,124.2,5.5z M17.7,62.9c0,0.7,0,1.1,0,1.6c0,27.7,0,55.4,0,83.1c0,2.1,0.3,4.2,0.7,6.2
		c2.3,10.1,10.3,18.2,22.5,18.1c50.8-0.3,101.6-0.1,152.4-0.1c5.6,0,11.1,0,16.7,0c3.3,0,6.4-0.8,9.2-2.6c8.1-5.1,11.5-12.8,11.5-22
		c0.1-27.5,0-55,0-82.4c0-0.6-0.1-1.2-0.1-1.9C159.6,62.9,88.8,62.9,17.7,62.9z M231.1,49.2c-0.5-4.6-0.5-9.1-1.4-13.3
		c-2.5-10.5-10.6-17.1-20.6-17.1c-56.6,0-113.3,0-169.9,0c-3.5,0-6.8,0.7-9.8,2.5c-10,5.9-12.8,17.4-11.5,27.9
		C88.8,49.2,159.6,49.2,231.1,49.2z"/>
	<path d="M197.9,93.4c0,4,0,7.9,0,12c-18.9,0-37.8,0-56.8,0c0-3.9,0-7.9,0-12C159.9,93.4,178.8,93.4,197.9,93.4z"/>
	<path d="M141,128.2c0-4.1,0-8,0-12c15.9,0,31.7,0,47.6,0c0,4,0,8,0,12C172.8,128.2,157,128.2,141,128.2z"/>
	<path d="M141,150.2c0-4.1,0-8,0-12c13.2,0,26.4,0,39.7,0c0,4,0,7.9,0,12C167.5,150.2,154.4,150.2,141,150.2z"/>
	<path d="M157.7,33.8c0,4.7-3.7,8.5-8.4,8.5c-4.7,0-8.5-3.8-8.6-8.4c0-4.6,3.8-8.5,8.5-8.6C153.8,25.3,157.6,29.1,157.7,33.8z"/>
	<path d="M202.2,42.3c-4.7,0-8.5-3.8-8.5-8.5c0-4.7,3.8-8.5,8.5-8.5c4.7,0,8.5,3.8,8.5,8.5C210.7,38.5,206.9,42.3,202.2,42.3z"/>
	<path d="M174.9,42.3c-4.7,0-8.5-3.8-8.4-8.5c0-4.7,3.8-8.5,8.5-8.5c4.7,0,8.5,3.9,8.4,8.6C183.4,38.6,179.6,42.3,174.9,42.3z"/>
	<g>
		<path d="M93.6,106.2c1.8,1.2,2,2.9,1.9,4.8c0,0.2-0.1,0.5-0.1,0.7c-0.4,1.1-0.8,2.3-1.3,3.4c-0.3,0.8-0.9,1.3-1.8,1.6
			c-0.2,0.1-0.3,0.3-0.4,0.5c-0.7,2.5-1.9,4.8-3.5,6.9c-0.4,0.6-1,1.1-1.4,1.6c-0.1,0.2-0.2,0.4-0.2,0.6c0,0.7,0.1,1.5,0.1,2.2
			c0.1,0.9,0.4,1.7,1.1,2.4c0.9,0.9,1.9,1.5,3,2c2.5,1.1,5.1,2.1,7.6,3.2c2.2,0.9,4.3,1.9,6.5,2.9c0.8,0.4,1.5,0.9,2.3,1.4
			c2.3,1.4,3.7,3.5,4.3,6.2c0.3,1.3,0.5,2.7,0.3,4c0,0.3-0.1,0.4-0.4,0.4c-0.1,0-0.2,0-0.3,0c-22.7,0-45.5,0-68.2,0
			c-0.5,0-0.7-0.1-0.8-0.7c-0.1-1.7,0.2-3.2,0.7-4.8c0.6-2,1.8-3.6,3.5-4.8c2.3-1.6,4.8-2.7,7.3-3.8c2.7-1.1,5.4-2.2,8.1-3.3
			c1.4-0.6,2.8-1.3,4-2.2c1.1-0.9,1.7-2,1.8-3.5c0.2-1.3-0.2-2.2-1.1-3.1c-2-2.1-3.3-4.7-4.1-7.6c-0.1-0.3-0.3-0.5-0.6-0.6
			c-0.5-0.2-1-0.5-1.2-0.9c-1.1-1.8-2-3.7-1.9-5.9c0.1-1.3,0.5-2.5,1.7-3.3c0.1-0.1,0.1-0.3,0.1-0.5c-0.3-1.1-0.7-2.1-0.8-3.1
			c-0.1-1.4-0.1-2.8,0.1-4.1c0.3-1.8,0.6-3.7,1.1-5.4c0.3-1,0.8-2,1.3-2.9c0.9-1.5,2-2.9,3-4.3c1.5-2,3.6-3.3,6-4
			c5-1.6,9.9-1.3,14.5,1.3c1.5,0.8,2.8,2,3.7,3.5c0.1,0.1,0.2,0.2,0.3,0.3c2.2,1.5,3.3,3.7,3.9,6.3c0.5,2.2,0.9,4.5,1,6.7
			C94.8,102.1,94.6,104.2,93.6,106.2z"/>
	</g>
</g>
</svg>
