<?xml version="1.0" encoding="utf-8"?>
<!-- Generator: Adobe Illustrator 21.0.2, SVG Export Plug-In . SVG Version: 6.00 Build 0)  -->
<svg version="1.1" id="Layer_1" xmlns="http://www.w3.org/2000/svg" xmlns:xlink="http://www.w3.org/1999/xlink" x="0px" y="0px"
	 viewBox="0 0 622 441" style="enable-background:new 0 0 622 441;" xml:space="preserve">
<g>
	<path d="M308.2,89c33.1,0,66.1,0,99.2,0c10.5,0,19,3.7,25.4,12.1c3.8,5.1,5.7,10.8,5.7,17.1c0,43.6,0,87.3,0,130.9
		c0,14.5-11.8,29.5-30.4,29.4c-10.3-0.1-20.5,0-30.8,0c-56,0-112,0-167.9,0c-10.5,0-19.3-3.5-25.7-12.1c-3.8-5.1-5.8-10.8-5.8-17.1
		c0-43.7,0-87.5,0-131.2c0-14.5,12-29.4,30.8-29.3C241.9,89.1,275.1,89,308.2,89z M308.1,254.8c32.9,0,65.7,0,98.6,0
		c6.3,0,8.2-1.8,8.2-8c0-42.3,0-84.5,0-126.8c0-5.3-2.1-7.4-7.3-7.5c-66.2,0-132.5,0-198.7,0c-5.3,0-7.3,2.1-7.3,7.4
		c0,42.2,0,84.3,0,126.5c0,6.6,1.8,8.4,8.5,8.4C242.7,254.8,275.4,254.8,308.1,254.8z"/>
	<path d="M130.5,290.5c118.6,0,236.8,0,355.2,0c0.1,0.8,0.2,1.5,0.2,2.3c0,4.7-0.1,9.5,0,14.2c0.1,5-2,8.7-5.8,11.7
		c-4.9,3.8-10.5,5.8-16.5,6.6c-3,0.4-6.1,0.6-9.1,0.6c-97.5,0-195.1,0-292.6,0c-8.5,0-16.7-1.2-24-6c-5.1-3.4-7.8-7.8-7.5-14.1
		C130.7,300.7,130.5,295.7,130.5,290.5z M308.3,308.2c4.5,0,9.1,0,13.6,0c2.1,0,4.1-0.2,4.2-2.9c0.1-2.8-1.9-3.1-4-3.1
		c-9.2,0-18.3,0-27.5,0c-2.2,0-4.1,0.3-4,3.1c0.1,2.8,2.1,2.9,4.2,2.9C299.2,308.1,303.7,308.2,308.3,308.2z"/>
</g>
</svg>
