<?xml version="1.0" encoding="utf-8"?>
<!-- Generator: Adobe Illustrator 21.0.2, SVG Export Plug-In . SVG Version: 6.00 Build 0)  -->
<svg version="1.1" id="Layer_1" xmlns="http://www.w3.org/2000/svg" xmlns:xlink="http://www.w3.org/1999/xlink" x="0px" y="0px"
	 viewBox="0 0 583 506" style="enable-background:new 0 0 583 506;" xml:space="preserve">
<g>
	<path d="M179,250.9c0-48.8,0-97.6,0-146.5c0-23.2,15.8-39.4,38.9-39.4c48.5-0.1,97-0.1,145.5,0c22.9,0,38.8,16.2,38.8,39.1
		c0,97.8,0,195.6,0,293.4c0,23.4-15.9,39.4-39.3,39.5c-44.2,0.1-88.3,0-132.5,0c-6.3,0-12.7,0.2-19-0.6c-18.5-2.2-32.3-18-32.3-36.6
		C179,350.1,179,300.5,179,250.9z M374.3,251c0-33.5,0-66.9,0-100.4c0-7.6-3.4-11.2-11-11.2c-48.5,0-97,0-145.5,0
		c-7.6,0-11,3.5-11,11.2c0,66.8,0,133.6,0,200.4c0,8.3,3.3,11.7,11.4,11.7c48.2,0,96.4,0,144.6,0c8.2,0,11.4-3.4,11.4-11.7
		C374.3,317.6,374.3,284.3,374.3,251z M313.9,399.7c0-12.9-10.4-23.2-23.4-23.1c-12.7,0-23.1,10.3-23.2,22.9
		c0,13.2,10.3,23.7,23.4,23.7C303.6,423,313.9,412.6,313.9,399.7z M290.4,111.5c7.4,0,14.9,0,22.3,0c3.4,0,5.9-0.9,5.9-4.8
		c0-3.7-2.5-4.6-5.6-4.6c-14.9,0-29.7,0-44.6,0c-3.1,0-5.6,0.8-5.6,4.6c0,3.9,2.5,4.9,5.9,4.9C275.8,111.5,283.1,111.5,290.4,111.5z
		"/>
</g>
</svg>
