<?xml version="1.0" encoding="utf-8"?>
<!-- Generator: Adobe Illustrator 21.0.2, SVG Export Plug-In . SVG Version: 6.00 Build 0)  -->
<svg version="1.1" id="Layer_1" xmlns="http://www.w3.org/2000/svg" xmlns:xlink="http://www.w3.org/1999/xlink" x="0px" y="0px"
	 viewBox="0 0 606 488" style="enable-background:new 0 0 606 488;" xml:space="preserve">
<g>
	<path d="M351.8,330.6c1,3.8,1.5,7.3,2.7,10.5c1.5,4,3.3,7.8,5.2,11.6c3.9,7.9,0,14.3-8.8,14.3c-23.3,0-46.7,0-70,0
		c-2.9,0-5.6-0.5-7.7-2.7c-3.2-3.3-3.4-6.7-1.1-11.5c1.9-3.9,3.9-7.7,5.4-11.8c1.2-3.2,1.7-6.7,2.6-10.5c-1.5,0-2.4,0-3.3,0
		c-24.5,0-49,0-73.5,0c-11.6,0-20.4-6.5-23.1-17.1c-0.5-1.8-0.7-3.7-0.7-5.6c0-51.5,0-103.1-0.1-154.6c0-11.3,9.2-22.9,23.8-22.8
		c23,0.2,46.1,0,69.1,0c52,0,104,0.1,156,0c12.5,0,20.3,7.7,22.7,15.5c0.7,2.3,1.2,4.7,1.2,7.1c0.1,51.6,0,103.2,0.1,154.9
		c0,11.2-9.1,22.8-23.7,22.7c-24.5-0.1-49,0-73.5,0C354.3,330.6,353.4,330.6,351.8,330.6z M315.9,148.7c-37.3,0-74.6,0-111.9,0
		c-5,0-6.4,1.3-6.4,6.3c0,17.1,0,34.1,0,51.2c0,21.5,0,43.1,0,64.6c0,3.6,1.7,5.3,5.3,5.4c0.5,0,1.1,0,1.6,0c74.4,0,148.7,0,223.1,0
		c0.7,0,1.4,0,2,0c2.9-0.2,4.6-2,4.6-4.9c0-39.2,0-78.4,0-117.6c0-2.9-1.7-4.7-4.6-4.9c-0.8-0.1-1.5,0-2.3,0
		C390.2,148.7,353.1,148.7,315.9,148.7z"/>
</g>
</svg>
