<?xml version="1.0" encoding="utf-8"?>
<!-- Generator: Adobe Illustrator 21.0.2, SVG Export Plug-In . SVG Version: 6.00 Build 0)  -->
<svg version="1.1" id="Layer_1" xmlns="http://www.w3.org/2000/svg" xmlns:xlink="http://www.w3.org/1999/xlink" x="0px" y="0px"
	 viewBox="0 0 479 398" style="enable-background:new 0 0 479 398;" xml:space="preserve">
<g>
	<path d="M339.3,197c0,29.6,0,59.3,0,88.9c0,12-8.1,22.4-19.6,25.2c-2.3,0.6-4.8,0.8-7.2,0.8c-44.7,0-89.4,0.1-134,0
		c-14.1,0-24.5-9-26.7-22.6c-0.3-1.6-0.2-3.3-0.2-4.9c0-58.2,0-116.5,0-174.7c0-16,11.1-27.2,27.2-27.2c34.9,0,69.9,0,104.8,0
		c9.6,0,19.3-0.1,28.9,0c14,0.1,24.4,9,26.5,22.4c0.2,1.5,0.2,3.1,0.2,4.7C339.3,138.8,339.3,167.9,339.3,197z M172.4,186.6
		c0,25.5,0,50.9,0,76.4c0,5.7,1.6,7.3,7.2,7.3c43.9,0,87.8,0,131.7,0c5.5,0,7.2-1.6,7.2-7.1c0-51,0-102,0-153.1c0-5-1.7-6.8-6.7-6.8
		c-44.2,0-88.5,0-132.7,0c-4.9,0-6.7,1.8-6.7,6.6C172.4,135.5,172.4,161,172.4,186.6z M255.8,291.1c0-5.7-4.8-10.4-10.5-10.4
		c-5.6,0-10.3,4.7-10.4,10.2c0,5.9,4.7,10.7,10.5,10.6C251.2,301.5,255.8,296.8,255.8,291.1z"/>
</g>
</svg>
